<svg xmlns="http://www.w3.org/2000/svg" width="120px" height="120px" viewBox="0 0 120 120">
<path fill="#00A9E0" d="M60.003,1.334l7.684,6.749c0.186,0.163,0.422,0.249,0.66,0.249
c0.133,0,0.268-0.027,0.395-0.081l9.393-4.042l5.224,8.784c0.181,0.305,0.509,0.489,0.859,0.489c0.031,0,0.061-0.001,0.092-0.004
l10.18-0.939l2.253,9.973c0.085,0.376,0.379,0.67,0.755,0.755l9.972,2.256l-0.938,10.175c-0.035,0.384,0.153,0.754,0.484,0.951
l8.788,5.23l-4.038,9.383c-0.152,0.354-0.088,0.764,0.166,1.054l6.738,7.69l-6.743,7.68c-0.255,0.29-0.32,0.7-0.167,1.055
l4.038,9.392l-8.787,5.221c-0.332,0.197-0.52,0.567-0.485,0.951l0.938,10.184l-9.971,2.247c-0.376,0.085-0.671,0.379-0.756,0.755
l-2.253,9.973l-10.18-0.939c-0.031-0.003-0.062-0.004-0.092-0.004c-0.35,0-0.678,0.184-0.859,0.489l-5.224,8.794l-9.393-4.042
c-0.127-0.055-0.262-0.081-0.395-0.081c-0.238,0-0.474,0.085-0.66,0.248l-7.678,6.74l-7.684-6.74
c-0.186-0.163-0.421-0.248-0.66-0.248c-0.133,0-0.268,0.027-0.395,0.081l-9.393,4.042l-5.224-8.794
c-0.181-0.305-0.509-0.489-0.859-0.489c-0.031,0-0.061,0.001-0.092,0.004l-10.18,0.939l-2.253-9.973
c-0.085-0.376-0.379-0.67-0.756-0.755l-9.971-2.247l0.938-10.184c0.035-0.384-0.153-0.754-0.485-0.951l-8.787-5.221l4.038-9.392
c0.152-0.354,0.087-0.765-0.167-1.055l-6.743-7.68l6.743-7.689c0.254-0.29,0.319-0.7,0.167-1.055l-4.038-9.383l8.788-5.23
c0.331-0.197,0.52-0.567,0.484-0.951l-0.938-10.175l9.972-2.256c0.376-0.085,0.67-0.379,0.755-0.755l2.253-9.973l10.18,0.939
c0.031,0.003,0.062,0.004,0.092,0.004c0.35,0,0.678-0.184,0.859-0.489l5.224-8.784l9.393,4.042c0.127,0.055,0.262,0.081,0.395,0.081
c0.239,0,0.474-0.085,0.66-0.249L60.003,1.334 M60.003,0.003l-8.344,7.329l-10.2-4.389l-5.673,9.539l-11.053-1.02L22.287,22.29
l-10.827,2.45l1.019,11.049l-9.542,5.679l4.385,10.189L0,60.005l7.322,8.339L2.937,78.543l9.542,5.669L11.459,95.27l10.827,2.44
l2.447,10.829l11.053-1.02l5.673,9.549l10.2-4.389l8.344,7.319l8.338-7.319l10.2,4.389l5.673-9.549l11.053,1.02l2.447-10.829
l10.827-2.44l-1.019-11.059l9.542-5.669l-4.385-10.199L120,60.005l-7.316-8.349l4.385-10.189l-9.542-5.679l1.019-11.049
l-10.827-2.45l-2.447-10.829l-11.053,1.02l-5.673-9.539l-10.2,4.389L60.003,0.003L60.003,0.003z"/>
</svg>
