<svg xmlns="http://www.w3.org/2000/svg" width="120px" height="120px" viewBox="0 0 120 120">
<path fill="#00A9E0" d="M82.796,120H37.205c-4.249,0-7.705-3.456-7.705-7.704V7.705C29.5,3.456,32.956,0,37.205,0h45.591
C87.044,0,90.5,3.456,90.5,7.705v104.591C90.5,116.544,87.044,120,82.796,120z M37.205,2C34.059,2,31.5,4.559,31.5,7.705v104.591
c0,3.146,2.559,5.704,5.705,5.704h45.591c3.146,0,5.704-2.559,5.704-5.704V7.705C88.5,4.559,85.941,2,82.796,2H37.205z"/>
<path fill="#00A9E0" d="M74.75,12.727H46.591c-0.552,0-1-0.448-1-1s0.448-1,1-1H74.75c0.553,0,1,0.448,1,1
S75.303,12.727,74.75,12.727z"/>
<path fill="#00A9E0" d="M65.363,109.272h-9.386c-0.552,0-1-0.447-1-1s0.448-1,1-1h9.386c0.553,0,1,0.447,1,1
S65.916,109.272,65.363,109.272z"/>
<path fill="#00A9E0" d="M51.053,45c3.337,0,6.053,2.715,6.053,6.053s-2.715,6.053-6.053,6.053S45,54.39,45,51.053
S47.715,45,51.053,45 M51.053,43C46.605,43,43,46.605,43,51.053s3.605,8.053,8.053,8.053s8.053-3.605,8.053-8.053S55.5,43,51.053,43
L51.053,43z"/>
<path fill="#00A9E0" d="M68.947,62.895c3.337,0,6.053,2.715,6.053,6.053C75,72.285,72.285,75,68.947,75
c-3.337,0-6.053-2.715-6.053-6.053C62.895,65.61,65.61,62.895,68.947,62.895 M68.947,60.895c-4.447,0-8.053,3.605-8.053,8.053
c0,4.447,3.605,8.053,8.053,8.053C73.395,77,77,73.395,77,68.947C77,64.5,73.395,60.895,68.947,60.895L68.947,60.895z"/>
<path fill="#00A9E0" d="M45.684,75.315c-0.256,0-0.512-0.098-0.707-0.293c-0.391-0.391-0.391-1.023,0-1.414l28.631-28.631
c0.391-0.391,1.023-0.391,1.414,0s0.391,1.023,0,1.414L46.391,75.022C46.196,75.218,45.94,75.315,45.684,75.315z"/>
</svg>
