<svg xmlns="http://www.w3.org/2000/svg" width="120px" height="120px" viewBox="0 0 120 120">
<circle fill="#00A9E0" cx="31.26" cy="57.023" r="2"/>
<path fill="#00A9E0" d="M85.883,49.548c-0.285,0-0.569-0.122-0.768-0.358c-0.545-0.651-13.619-15.847-37.118-8.283
c-0.529,0.17-1.09-0.12-1.258-0.645c-0.169-0.526,0.12-1.089,0.645-1.258c24.822-7.99,39.126,8.735,39.268,8.905
c0.353,0.424,0.296,1.053-0.128,1.407C86.337,49.472,86.109,49.548,85.883,49.548z"/>
<path fill="#00A9E0" d="M119.953,45.225c-0.056-0.548-0.554-0.946-1.095-0.893c-0.55,0.055-0.95,0.545-0.896,1.094
c0.007,0.069,0.632,6.875-3.721,7.503c-0.77,0.112-1.556-0.154-2.286-0.629c2.158-1.749,4.04-3.83,3.814-5.654
c-0.164-1.328-1.253-2.271-3.237-2.803c-3.078-0.826-4.522,0.047-5.19,0.925c-1.043,1.372-0.841,3.668,0.527,5.995
c0.269,0.457,0.592,0.922,0.961,1.37c-0.774,0.538-1.592,1.05-2.415,1.54c-3.349-8.203-9.47-15.463-17.736-20.651
c-0.466-0.292-1.085-0.151-1.378,0.315c-0.294,0.468-0.152,1.085,0.315,1.379c12.337,7.743,19.703,20.276,19.703,33.526
c0,11.658-5.694,22.828-15.623,30.646c-0.313,0.248-0.45,0.658-0.347,1.045L94.7,112.44c0.266,0.992-0.325,2.017-1.317,2.283
l-11.991,3.213c-0.993,0.265-2.018-0.325-2.284-1.318l-2.329-8.692c-0.07-0.262-0.243-0.483-0.479-0.615
c-0.237-0.132-0.518-0.164-0.775-0.083c-9.353,2.828-19.632,2.999-29.104,0.499c-0.533-0.138-1.079,0.177-1.221,0.708l-2.193,8.184
c-0.129,0.481-0.438,0.883-0.869,1.132c-0.432,0.249-0.933,0.316-1.415,0.187l-11.989-3.213c-0.993-0.267-1.584-1.291-1.319-2.283
l3.029-11.306c0.107-0.401-0.044-0.827-0.381-1.07c-5.74-4.14-10.337-9.479-13.296-15.438c-0.168-0.341-0.516-0.556-0.896-0.556
l-9.063,0.002c-0.798-0.045-1.651-0.32-1.937-2.052L2.013,66.778c-0.067-0.44,0.14-0.79,0.326-1.007
c0.361-0.421,0.929-0.688,1.493-0.705c1.099,0.141,7.912,0.83,9.305-3.141c1.322-4.094,5.042-14.275,11.005-20.396
c0.328-0.337,0.377-0.857,0.118-1.25c-2.857-4.318-7.875-7.558-15.761-10.166c1.159-1.249,6.754-3.811,13.123-3.482
c5.247,0.271,10.212,2.272,13.982,5.634c0.305,0.272,0.746,0.33,1.112,0.148c6.773-3.383,14.478-5.254,22.28-5.411
c0.552-0.011,0.991-0.468,0.98-1.02s-0.456-0.983-1.02-0.98c-7.868,0.159-15.644,1.999-22.533,5.327
c-4.04-3.396-9.231-5.413-14.698-5.695c-6.857-0.354-14.267,2.516-15.283,5.03c-0.291,0.72-0.122,1.448,0.453,1.947
c0.103,0.089,0.222,0.157,0.352,0.198c7.378,2.363,12.14,5.212,14.893,8.928c-5.922,6.461-9.582,16.476-10.898,20.55
c-0.751,2.142-5.584,2.003-7.219,1.787c-0.043-0.006-0.088-0.009-0.132-0.009c-1.167,0-2.314,0.524-3.069,1.403
c-0.648,0.756-0.927,1.684-0.779,2.646l2.861,15.254c0.375,2.272,1.723,3.587,3.852,3.703h8.503
c3.008,5.832,7.511,11.067,13.078,15.207l-2.852,10.645c-0.551,2.058,0.675,4.18,2.732,4.732l11.99,3.213
c0.333,0.089,0.67,0.134,1.006,0.134c0.669,0,1.33-0.176,1.926-0.52c0.895-0.517,1.534-1.35,1.801-2.347l1.938-7.23
c9.221,2.257,19.13,2.092,28.236-0.475l2.064,7.706c0.554,2.058,2.683,3.287,4.733,2.731l11.992-3.213
c2.057-0.553,3.281-2.676,2.73-4.732l-3.182-11.875c10.094-8.179,15.869-19.734,15.869-31.805c0-4.341-0.75-8.607-2.17-12.669
c0.779-0.456,1.922-1.157,3.13-2.01c1.212,0.957,2.673,1.571,4.247,1.345C119.526,54.187,120.262,48.259,119.953,45.225z
M109.594,49.75c-0.891-1.515-1.168-3.101-0.659-3.77c0.237-0.312,0.707-0.47,1.355-0.47c0.483,0,1.066,0.088,1.726,0.265
c1.072,0.288,1.718,0.695,1.77,1.117c0.112,0.908-1.312,2.458-3.34,4.051C110.121,50.563,109.833,50.155,109.594,49.75z"/>
<path fill="#00A9E0" d="M76.857,33.841c-9.33,0-16.921-7.591-16.921-16.921S67.527,0,76.857,0s16.921,7.59,16.921,16.92
S86.188,33.841,76.857,33.841z M76.857,2c-8.227,0-14.92,6.693-14.92,14.92c0,8.228,6.693,14.921,14.921,14.921
s14.921-6.693,14.921-14.921C91.778,8.693,85.085,2,76.857,2z"/>
</svg>
