<svg xmlns="http://www.w3.org/2000/svg" width="120px" height="120px" viewBox="0 0 120 120">
<path fill="#00A9E0" d="M117,28H69.318C78.424,25.492,91,20.339,91,11c0-6.065-4.935-11-11-11C68.087,0,62.16,16.664,60,24.662
C57.841,16.664,51.913,0,40,0c-6.065,0-11,4.935-11,11c0,9.339,12.576,14.492,21.682,17H3c-1.654,0-3,1.346-3,3v22
c0,1.654,1.346,3,3,3h7v61c0,1.654,1.346,3,3,3h94c1.654,0,3-1.346,3-3V56h7c1.654,0,3-1.346,3-3V31C120,29.346,118.654,28,117,28z
M80,2c4.963,0,9,4.038,9,9c0,10.967-21.835,15.694-27.707,16.766C62.6,22.172,68.139,2,80,2z M31,11c0-4.962,4.038-9,9-9
c11.852,0,17.397,20.172,18.707,25.766C52.833,26.693,31,21.966,31,11z M2,53V31c0-0.551,0.449-1,1-1h56v24H3
C2.449,54,2,53.551,2,53z M12,117V56h47v62H13C12.449,118,12,117.552,12,117z M108,117c0,0.552-0.448,1-1,1H61V56h47V117z M118,53
c0,0.551-0.448,1-1,1H61V30h56c0.552,0,1,0.449,1,1V53z"/>
</svg>
