<svg xmlns="http://www.w3.org/2000/svg" width="120px" height="120px" viewBox="0 0 120 120">
<path fill="#00A9E0" d="M116.789,77.938L80.861,42.004c-0.391-0.391-1.023-0.391-1.414,0c-0.391,0.39-0.391,1.023,0,1.414
l35.929,35.936c1.219,1.214,1.892,2.833,1.893,4.56c0.002,1.727-0.667,3.348-1.885,4.564c-1.226,1.228-2.851,1.904-4.575,1.904
c-0.005,0-0.009,0-0.013,0c-1.727-0.004-3.349-0.684-4.573-1.919L95.338,77.598c-0.163-0.163-0.371-0.242-0.584-0.268
c-0.041-0.005-0.081-0.024-0.123-0.024c-0.192,0-0.375,0.073-0.541,0.183c-0.056,0.037-0.117,0.061-0.166,0.11c0,0,0,0,0,0.001
s0,0-0.001,0c-0.052,0.052-0.079,0.118-0.118,0.178c-0.033,0.052-0.079,0.097-0.101,0.153c-0.023,0.058-0.023,0.121-0.035,0.181
c-0.013,0.065-0.038,0.129-0.038,0.195c0,0.057,0.023,0.111,0.033,0.168c0.012,0.07,0.014,0.142,0.041,0.208
c0.02,0.049,0.061,0.088,0.089,0.134c0.041,0.067,0.073,0.139,0.13,0.197l9.674,9.679c1.224,1.214,1.898,2.831,1.902,4.556
c0.004,1.73-0.669,3.357-1.895,4.583c-1.223,1.224-2.845,1.896-4.568,1.896c-0.006,0-0.012,0-0.018,0
c-1.725-0.005-3.343-0.684-4.563-1.917l-1.947-1.942c-0.013-0.013-0.023-0.027-0.036-0.04l-8.796-8.77
c-0.391-0.389-1.023-0.391-1.414,0.002c-0.39,0.391-0.39,1.024,0.002,1.414l8.83,8.807c2.479,2.529,2.471,6.611-0.023,9.119
c-2.539,2.511-6.653,2.508-9.167-0.002l-8.769-8.783c-0.195-0.196-0.451-0.294-0.707-0.294c-0.256,0-0.513,0.097-0.707,0.292
c-0.196,0.195-0.294,0.451-0.294,0.707c0,0.256,0.097,0.512,0.292,0.707l5.687,5.702c1.229,1.213,1.908,2.828,1.912,4.55
c0.005,1.733-0.674,3.365-1.913,4.6c-1.211,1.215-2.827,1.885-4.551,1.885c-0.001,0-0.002,0-0.003,0
c-1.729,0-3.353-0.673-4.574-1.896l-3.891-3.884c-0.391-0.389-1.024-0.39-1.415,0.001c-0.39,0.392-0.39,1.024,0.001,1.415
l3.891,3.883c1.599,1.6,3.725,2.48,5.988,2.48c0.002,0,0.003,0,0.004,0c2.259-0.001,4.377-0.879,5.964-2.47
c1.617-1.611,2.505-3.749,2.499-6.02c-0.001-0.261-0.016-0.519-0.04-0.776c1.521,1.183,3.358,1.781,5.201,1.781
c2.17,0,4.344-0.821,6.004-2.463c1.951-1.963,2.733-4.654,2.365-7.209c1.255,0.721,2.677,1.114,4.163,1.118c0.008,0,0.016,0,0.024,0
c2.257,0,4.381-0.881,5.981-2.482c1.604-1.604,2.485-3.735,2.48-6.001c-0.001-0.547-0.056-1.085-0.158-1.61
c1.072,0.484,2.239,0.747,3.449,0.75c0.006,0,0.011,0,0.017,0c2.26,0,4.388-0.885,5.99-2.491c1.595-1.594,2.472-3.718,2.47-5.979
S118.386,79.528,116.789,77.938z"/>
<path fill="#00A9E0" d="M11.252,59.415c0.197,0.248,0.489,0.377,0.783,0.377c0.219,0,0.438-0.071,0.623-0.218
c0.432-0.344,0.503-0.973,0.159-1.405c-4.721-5.926-6.196-14.394-4.047-23.23c0.061-0.251,0.022-0.516-0.107-0.739
c-4.87-8.386-3.496-19.018,3.344-25.854c6.299-6.305,15.993-8.017,24.121-4.257c0.238,0.111,0.509,0.123,0.756,0.034
c4.451-1.589,9.046-2.31,13.275-2.081c0.558,0.029,1.022-0.393,1.052-0.945s-0.394-1.022-0.945-1.052
c-4.378-0.236-9.093,0.476-13.672,2.06c-8.808-3.887-19.208-1.972-26.001,4.827c-7.385,7.382-8.945,18.809-3.858,27.923
C4.575,44.157,6.213,53.089,11.252,59.415z"/>
<path fill="#00A9E0" d="M53.856,92.017c-0.006,0-0.013,0-0.019,0c-0.238,0-0.473,0.016-0.708,0.036l1.583-1.584
c1.606-1.599,2.491-3.727,2.49-5.991c-0.001-2.259-0.883-4.378-2.477-5.959c-1.593-1.614-3.719-2.503-5.987-2.504
c0,0-0.001,0-0.002,0c-0.85,0-1.68,0.125-2.469,0.366c0.87-2.903,0.172-6.172-2.102-8.441c-3.307-3.289-8.681-3.287-11.979,0.008
l-0.492,0.493c0.2-2.398-0.611-4.87-2.442-6.714c-3.302-3.285-8.672-3.279-11.975,0.015L3.208,75.799
c-3.291,3.328-3.292,8.708-0.001,11.992c1.648,1.641,3.814,2.461,5.981,2.461c0.402,0,0.803-0.038,1.202-0.094
c-0.747,1.275-1.154,2.727-1.156,4.244c-0.003,2.263,0.877,4.391,2.478,5.991c1.598,1.603,3.721,2.485,5.98,2.485
c0.003,0,0.007,0,0.011,0c1.492-0.002,2.92-0.396,4.181-1.12c-0.368,2.556,0.417,5.249,2.378,7.213
c1.649,1.645,3.813,2.467,5.978,2.467c1.448,0,2.893-0.377,4.187-1.112c-0.059,0.409-0.098,0.823-0.097,1.243
c0.005,2.255,0.888,4.37,2.481,5.953c1.593,1.598,3.714,2.478,5.975,2.478c0.001,0,0.003,0,0.005,0
c2.262-0.001,4.39-0.884,5.993-2.483l0-0.001l11.048-11.046c1.602-1.591,2.487-3.711,2.491-5.97
c0.005-2.267-0.877-4.398-2.481-6.004C58.239,92.896,56.115,92.017,53.856,92.017z M4.619,86.374
c-2.513-2.508-2.508-6.621,0.006-9.165l14.066-14.053c1.265-1.262,2.926-1.892,4.586-1.892c1.653,0,3.304,0.625,4.561,1.876
c2.524,2.541,2.522,6.65-0.006,9.163L13.774,86.364C11.248,88.88,7.139,88.884,4.619,86.374z M17.699,100.878
c-0.003,0-0.005,0-0.008,0c-1.724,0-3.344-0.674-4.564-1.898c-1.223-1.224-1.896-2.849-1.893-4.576
c0.002-1.725,0.676-3.345,1.901-4.563l20.466-20.479c1.261-1.26,2.919-1.889,4.578-1.889c1.656,0,3.313,0.628,4.575,1.884
c2.511,2.505,2.505,6.616-0.007,9.159L22.275,98.962c-0.001,0.002-0.002,0.003-0.003,0.004
C21.051,100.197,19.427,100.876,17.699,100.878z M34.816,107.544c-2.519,2.522-6.621,2.528-9.142,0.014
c-2.522-2.528-2.521-6.639,0.004-9.164l18.486-18.467c1.218-1.233,2.841-1.912,4.572-1.912c0,0,0.001,0,0.001,0
c1.729,0.001,3.35,0.679,4.571,1.916c1.22,1.211,1.892,2.826,1.893,4.548c0.001,1.729-0.674,3.353-1.9,4.572
c-0.001,0.001-0.001,0.001-0.002,0.002l-14.895,14.902l-1.59,1.588c-0.01,0.01-0.019,0.022-0.029,0.032L34.816,107.544z
M58.419,105.053l-11.05,11.048c-1.226,1.224-2.853,1.898-4.582,1.899c-0.001,0-0.002,0-0.003,0c-1.725,0-3.344-0.671-4.562-1.893
c-1.217-1.21-1.89-2.823-1.895-4.543c-0.004-1.723,0.662-3.346,1.873-4.576l1.619-1.62l9.459-9.444
c1.216-1.226,2.837-1.903,4.563-1.907c0.005,0,0.01,0,0.015,0c1.725,0,3.348,0.673,4.57,1.894c1.226,1.227,1.899,2.855,1.896,4.586
C60.318,102.22,59.644,103.837,58.419,105.053z"/>
<path fill="#00A9E0" d="M21.27,36.645c-1.604,1.6-2.486,3.729-2.485,5.995c0.001,2.261,0.882,4.383,2.478,5.973
c1.598,1.603,3.723,2.486,5.984,2.486c0,0,0.001,0,0.002,0c2.263-0.001,4.39-0.885,5.986-2.489L48.61,33.24
c5.877,4.668,14.369,4.245,19.729-1.13c0.39-0.391,0.39-1.024-0.002-1.414c-0.391-0.39-1.023-0.39-1.414,0.002
c-4.831,4.845-12.605,5.039-17.701,0.442c-0.396-0.357-1-0.341-1.377,0.035L31.818,47.197c-1.22,1.226-2.843,1.901-4.57,1.902
c-0.001,0-0.001,0-0.002,0c-1.726,0-3.348-0.674-4.57-1.9c-1.219-1.214-1.891-2.833-1.892-4.559c0-1.731,0.673-3.357,1.898-4.579
c0.294-0.294,29.442-29.417,29.779-29.749C59.321,1.81,69.97,0.269,80.951,4.191c0.246,0.087,0.518,0.075,0.757-0.035
c8.121-3.765,17.811-2.054,24.117,4.252c6.82,6.835,8.19,17.466,3.331,25.853c-0.129,0.223-0.167,0.487-0.106,0.738
c2.121,8.71,0.716,17.082-3.854,22.968c-0.339,0.436-0.26,1.064,0.177,1.403c0.183,0.142,0.398,0.21,0.612,0.21
c0.299,0,0.594-0.133,0.791-0.387c4.877-6.282,6.439-15.111,4.31-24.279c5.075-9.112,3.521-20.538-3.845-27.919
c-6.802-6.803-17.199-8.715-26-4.823C69.669-1.836,58.423-0.094,51.105,6.843C51.078,6.867,51.022,6.917,21.27,36.645z"/>
</svg>
